<svg xmlns="http://www.w3.org/2000/svg" viewBox="0 0 64 64">
  <rect width="64" height="64" rx="14" fill="#fff7ed"/>
  <path d="M23 20c-4-12-11-8-8 3l3 12" fill="#fff" stroke="#111827" stroke-width="3" stroke-linecap="round"/>
  <path d="M41 20c4-12 11-8 8 3l-3 12" fill="#fff" stroke="#111827" stroke-width="3" stroke-linecap="round"/>
  <path d="M17 35c0-10 7-17 15-17s15 7 15 17-7 16-15 16-15-6-15-16Z" fill="#fff" stroke="#111827" stroke-width="3"/>
  <path d="M22 18h20v9H22z" fill="#111827"/>
  <path d="M17 27h30" stroke="#111827" stroke-width="5" stroke-linecap="round"/>
  <path d="M22 23h20" stroke="#06c755" stroke-width="3"/>
  <circle cx="26" cy="36" r="2" fill="#111827"/>
  <circle cx="38" cy="36" r="2" fill="#111827"/>
  <circle cx="32" cy="41" r="2" fill="#06c755"/>
  <path d="M27 45c3 2 7 2 10 0" stroke="#111827" stroke-width="2" stroke-linecap="round"/>
</svg>
